<svg width="128" height="23" viewBox="0 0 128 23" fill="none" xmlns="http://www.w3.org/2000/svg">
<path d="M10.9574 1.17216C11.3266 0.615729 12.1437 0.61573 12.5129 1.17216L15.427 5.56423C15.551 5.75114 15.7382 5.88714 15.9543 5.94733L21.0319 7.36157C21.6751 7.54074 21.9276 8.31782 21.5125 8.84088L18.2359 12.9696C18.0965 13.1453 18.025 13.3653 18.0345 13.5894L18.2585 18.8556C18.2869 19.5227 17.6259 20.003 17.0002 19.7698L12.061 17.9294C11.8508 17.8511 11.6195 17.8511 11.4093 17.9294L6.47013 19.7698C5.84438 20.003 5.18337 19.5227 5.21175 18.8556L5.43579 13.5894C5.44532 13.3653 5.37383 13.1453 5.23438 12.9696L1.95779 8.84088C1.54267 8.31782 1.79516 7.54074 2.43844 7.36157L7.51605 5.94733C7.73214 5.88714 7.91932 5.75114 8.04334 5.56423L10.9574 1.17216Z" fill="url(#paint0_linear_53_85)" fill-opacity="0.25"/>
<path d="M118 1.32642C118 0.9302 118.514 0.775108 118.733 1.10527L121.692 5.56423C121.816 5.75114 122.003 5.88714 122.219 5.94733L127.297 7.36157C127.94 7.54074 128.192 8.31782 127.777 8.84088L124.501 12.9696C124.361 13.1453 124.29 13.3653 124.299 13.5894L124.523 18.8556C124.552 19.5227 123.891 20.003 123.265 19.7698L118.607 18.0343C118.242 17.8982 118 17.5495 118 17.1598L118 15.6L118 13.242L118 8.4L118 5.85402L118 1.32642Z" fill="url(#paint1_linear_53_85)"/>
<path d="M37.3578 1.17228C37.727 0.615851 38.5441 0.615852 38.9133 1.17228L41.8274 5.56435C41.9514 5.75126 42.1386 5.88726 42.3546 5.94745L47.4322 7.3617C48.0755 7.54087 48.328 8.31794 47.9129 8.841L44.6363 12.9697C44.4969 13.1454 44.4254 13.3655 44.4349 13.5896L44.6589 18.8557C44.6873 19.5228 44.0263 20.0031 43.4006 19.7699L38.4614 17.9296C38.2512 17.8512 38.0199 17.8512 37.8097 17.9296L32.8705 19.7699C32.2448 20.0031 31.5838 19.5228 31.6121 18.8557L31.8362 13.5896C31.8457 13.3655 31.7742 13.1454 31.6348 12.9697L28.3582 8.841C27.9431 8.31794 28.1955 7.54087 28.8388 7.3617L33.9164 5.94745C34.1325 5.88726 34.3197 5.75126 34.4437 5.56435L37.3578 1.17228Z" fill="url(#paint2_linear_53_85)" fill-opacity="0.25"/>
<path d="M63.7572 1.17228C64.1264 0.615851 64.9435 0.615852 65.3127 1.17228L68.2268 5.56435C68.3508 5.75126 68.538 5.88726 68.7541 5.94745L73.8317 7.3617C74.4749 7.54087 74.7274 8.31794 74.3123 8.841L71.0357 12.9697C70.8963 13.1454 70.8248 13.3655 70.8343 13.5896L71.0584 18.8557C71.0867 19.5228 70.4257 20.0031 69.8 19.7699L64.8608 17.9296C64.6506 17.8512 64.4193 17.8512 64.2091 17.9296L59.2699 19.7699C58.6442 20.0031 57.9832 19.5228 58.0116 18.8557L58.2356 13.5896C58.2451 13.3655 58.1736 13.1454 58.0342 12.9697L54.7576 8.841C54.3425 8.31794 54.595 7.54087 55.2382 7.3617L60.3159 5.94745C60.5319 5.88726 60.7191 5.75126 60.8431 5.56435L63.7572 1.17228Z" fill="url(#paint3_linear_53_85)" fill-opacity="0.25"/>
<path d="M90.1576 1.17216C90.5268 0.615729 91.3439 0.61573 91.7131 1.17216L94.6272 5.56423C94.7512 5.75114 94.9384 5.88714 95.1544 5.94733L100.232 7.36157C100.875 7.54074 101.128 8.31782 100.713 8.84088L97.4361 12.9696C97.2967 13.1453 97.2252 13.3653 97.2347 13.5894L97.4587 18.8556C97.4871 19.5227 96.8261 20.003 96.2004 19.7698L91.2612 17.9294C91.051 17.8511 90.8197 17.8511 90.6095 17.9294L85.6703 19.7698C85.0446 20.003 84.3836 19.5227 84.4119 18.8556L84.636 13.5894C84.6455 13.3653 84.574 13.1453 84.4346 12.9696L81.158 8.84088C80.7429 8.31782 80.9954 7.54074 81.6386 7.36157L86.7162 5.94733C86.9323 5.88714 87.1195 5.75114 87.2435 5.56423L90.1576 1.17216Z" fill="url(#paint4_linear_53_85)" fill-opacity="0.25"/>
<path d="M116.557 1.17228C116.926 0.615851 117.743 0.615852 118.112 1.17228L121.027 5.56435C121.151 5.75126 121.338 5.88726 121.554 5.94745L126.631 7.3617C127.275 7.54087 127.527 8.31794 127.112 8.841L123.836 12.9697C123.696 13.1454 123.625 13.3655 123.634 13.5896L123.858 18.8557C123.887 19.5228 123.226 20.0031 122.6 19.7699L117.661 17.9296C117.45 17.8512 117.219 17.8512 117.009 17.9296L112.07 19.7699C111.444 20.0031 110.783 19.5228 110.811 18.8557L111.035 13.5896C111.045 13.3655 110.973 13.1454 110.834 12.9697L107.557 8.841C107.142 8.31794 107.395 7.54087 108.038 7.3617L113.116 5.94745C113.332 5.88726 113.519 5.75126 113.643 5.56435L116.557 1.17228Z" fill="url(#paint5_linear_53_85)" fill-opacity="0.25"/>
<defs>
<linearGradient id="paint0_linear_53_85" x1="0.535156" y1="0" x2="25.7293" y2="3.78086" gradientUnits="userSpaceOnUse">
<stop stop-color="#7CD470"/>
<stop offset="1" stop-color="#5FC977"/>
</linearGradient>
<linearGradient id="paint1_linear_53_85" x1="118" y1="0" x2="130.175" y2="0.960522" gradientUnits="userSpaceOnUse">
<stop stop-color="#7CD470"/>
<stop offset="1" stop-color="#5FC977"/>
</linearGradient>
<linearGradient id="paint2_linear_53_85" x1="26.9355" y1="0.00012207" x2="52.1297" y2="3.78098" gradientUnits="userSpaceOnUse">
<stop stop-color="#7CD470"/>
<stop offset="1" stop-color="#5FC977"/>
</linearGradient>
<linearGradient id="paint3_linear_53_85" x1="53.335" y1="0.00012207" x2="78.5291" y2="3.78098" gradientUnits="userSpaceOnUse">
<stop stop-color="#7CD470"/>
<stop offset="1" stop-color="#5FC977"/>
</linearGradient>
<linearGradient id="paint4_linear_53_85" x1="79.7354" y1="0" x2="104.929" y2="3.78086" gradientUnits="userSpaceOnUse">
<stop stop-color="#7CD470"/>
<stop offset="1" stop-color="#5FC977"/>
</linearGradient>
<linearGradient id="paint5_linear_53_85" x1="106.135" y1="0.00012207" x2="131.329" y2="3.78098" gradientUnits="userSpaceOnUse">
<stop stop-color="#7CD470"/>
<stop offset="1" stop-color="#5FC977"/>
</linearGradient>
</defs>
</svg>
