<svg width="128" height="23" viewBox="0 0 128 23" fill="none" xmlns="http://www.w3.org/2000/svg">
<path d="M10.891 1.17216C11.2602 0.615729 12.0773 0.61573 12.4465 1.17216L15.3606 5.56423C15.4846 5.75114 15.6718 5.88714 15.8878 5.94733L20.9654 7.36157C21.6087 7.54074 21.8612 8.31782 21.4461 8.84088L18.1695 12.9696C18.0301 13.1453 17.9586 13.3653 17.9681 13.5894L18.1921 18.8556C18.2205 19.5227 17.5595 20.003 16.9338 19.7698L11.9946 17.9294C11.7844 17.8511 11.5531 17.8511 11.3429 17.9294L6.40372 19.7698C5.77798 20.003 5.11696 19.5227 5.14534 18.8556L5.36938 13.5894C5.37892 13.3653 5.30742 13.1453 5.16798 12.9696L1.89138 8.84088C1.47627 8.31782 1.72875 7.54074 2.37204 7.36157L7.44964 5.94733C7.66573 5.88714 7.85292 5.75114 7.97693 5.56423L10.891 1.17216Z" fill="url(#paint0_linear_53_92)" fill-opacity="0.25"/>
<path d="M37.2914 1.17228C37.6606 0.615851 38.4777 0.615852 38.8469 1.17228L41.7609 5.56435C41.885 5.75126 42.0721 5.88726 42.2882 5.94745L47.3658 7.3617C48.0091 7.54087 48.2616 8.31794 47.8465 8.841L44.5699 12.9697C44.4305 13.1454 44.359 13.3655 44.3685 13.5896L44.5925 18.8557C44.6209 19.5228 43.9599 20.0031 43.3342 19.7699L38.395 17.9296C38.1848 17.8512 37.9534 17.8512 37.7432 17.9296L32.8041 19.7699C32.1784 20.0031 31.5174 19.5228 31.5457 18.8557L31.7698 13.5896C31.7793 13.3655 31.7078 13.1454 31.5684 12.9697L28.2918 8.841C27.8767 8.31794 28.1291 7.54087 28.7724 7.3617L33.85 5.94745C34.0661 5.88726 34.2533 5.75126 34.3773 5.56435L37.2914 1.17228Z" fill="url(#paint1_linear_53_92)" fill-opacity="0.25"/>
<path d="M63.6908 1.17228C64.06 0.615851 64.8771 0.615852 65.2463 1.17228L68.1604 5.56435C68.2844 5.75126 68.4716 5.88726 68.6877 5.94745L73.7653 7.3617C74.4085 7.54087 74.661 8.31794 74.2459 8.841L70.9693 12.9697C70.8299 13.1454 70.7584 13.3655 70.7679 13.5896L70.9919 18.8557C71.0203 19.5228 70.3593 20.0031 69.7336 19.7699L64.7944 17.9296C64.5842 17.8512 64.3529 17.8512 64.1427 17.9296L59.2035 19.7699C58.5778 20.0031 57.9168 19.5228 57.9451 18.8557L58.1692 13.5896C58.1787 13.3655 58.1072 13.1454 57.9678 12.9697L54.6912 8.841C54.2761 8.31794 54.5286 7.54087 55.1718 7.3617L60.2494 5.94745C60.4655 5.88726 60.6527 5.75126 60.7767 5.56435L63.6908 1.17228Z" fill="url(#paint2_linear_53_92)" fill-opacity="0.25"/>
<path d="M90.0912 1.17216C90.4604 0.615729 91.2775 0.61573 91.6467 1.17216L94.5607 5.56423C94.6848 5.75114 94.872 5.88714 95.088 5.94733L100.166 7.36157C100.809 7.54074 101.061 8.31782 100.646 8.84088L97.3697 12.9696C97.2303 13.1453 97.1588 13.3653 97.1683 13.5894L97.3923 18.8556C97.4207 19.5227 96.7597 20.003 96.134 19.7698L91.1948 17.9294C90.9846 17.8511 90.7533 17.8511 90.5431 17.9294L85.6039 19.7698C84.9782 20.003 84.3172 19.5227 84.3455 18.8556L84.5696 13.5894C84.5791 13.3653 84.5076 13.1453 84.3682 12.9696L81.0916 8.84088C80.6765 8.31782 80.9289 7.54074 81.5722 7.36157L86.6498 5.94733C86.8659 5.88714 87.0531 5.75114 87.1771 5.56423L90.0912 1.17216Z" fill="url(#paint3_linear_53_92)" fill-opacity="0.25"/>
<path d="M116.491 1.17228C116.86 0.615851 117.677 0.615852 118.046 1.17228L120.96 5.56435C121.084 5.75126 121.271 5.88726 121.487 5.94745L126.565 7.3617C127.208 7.54087 127.461 8.31794 127.046 8.841L123.769 12.9697C123.63 13.1454 123.558 13.3655 123.568 13.5896L123.792 18.8557C123.82 19.5228 123.159 20.0031 122.533 19.7699L117.594 17.9296C117.384 17.8512 117.153 17.8512 116.942 17.9296L112.003 19.7699C111.378 20.0031 110.717 19.5228 110.745 18.8557L110.969 13.5896C110.979 13.3655 110.907 13.1454 110.768 12.9697L107.491 8.841C107.076 8.31794 107.328 7.54087 107.972 7.3617L113.049 5.94745C113.265 5.88726 113.453 5.75126 113.577 5.56435L116.491 1.17228Z" fill="url(#paint4_linear_53_92)" fill-opacity="0.25"/>
<defs>
<linearGradient id="paint0_linear_53_92" x1="0.46875" y1="0" x2="25.6629" y2="3.78086" gradientUnits="userSpaceOnUse">
<stop stop-color="#7CD470"/>
<stop offset="1" stop-color="#5FC977"/>
</linearGradient>
<linearGradient id="paint1_linear_53_92" x1="26.8691" y1="0.00012207" x2="52.0633" y2="3.78098" gradientUnits="userSpaceOnUse">
<stop stop-color="#7CD470"/>
<stop offset="1" stop-color="#5FC977"/>
</linearGradient>
<linearGradient id="paint2_linear_53_92" x1="53.2686" y1="0.00012207" x2="78.4627" y2="3.78098" gradientUnits="userSpaceOnUse">
<stop stop-color="#7CD470"/>
<stop offset="1" stop-color="#5FC977"/>
</linearGradient>
<linearGradient id="paint3_linear_53_92" x1="79.6689" y1="0" x2="104.863" y2="3.78086" gradientUnits="userSpaceOnUse">
<stop stop-color="#7CD470"/>
<stop offset="1" stop-color="#5FC977"/>
</linearGradient>
<linearGradient id="paint4_linear_53_92" x1="106.068" y1="0.00012207" x2="131.263" y2="3.78098" gradientUnits="userSpaceOnUse">
<stop stop-color="#7CD470"/>
<stop offset="1" stop-color="#5FC977"/>
</linearGradient>
</defs>
</svg>
