<svg width="128" height="23" viewBox="0 0 128 23" fill="none" xmlns="http://www.w3.org/2000/svg">
<path d="M11.0902 1.17216C11.4594 0.615729 12.2765 0.61573 12.6457 1.17216L15.5598 5.56423C15.6838 5.75114 15.871 5.88714 16.0871 5.94733L21.1647 7.36157C21.808 7.54074 22.0604 8.31782 21.6453 8.84088L18.3687 12.9696C18.2293 13.1453 18.1578 13.3653 18.1673 13.5894L18.3914 18.8556C18.4197 19.5227 17.7587 20.003 17.133 19.7698L12.1938 17.9294C11.9836 17.8511 11.7523 17.8511 11.5421 17.9294L6.60294 19.7698C5.9772 20.003 5.31618 19.5227 5.34456 18.8556L5.5686 13.5894C5.57814 13.3653 5.50664 13.1453 5.36719 12.9696L2.0906 8.84088C1.67548 8.31782 1.92797 7.54074 2.57125 7.36157L7.64886 5.94733C7.86495 5.88714 8.05214 5.75114 8.17615 5.56423L11.0902 1.17216Z" fill="url(#paint0_linear_53_71)" fill-opacity="0.25"/>
<path d="M91 1.32642C91 0.9302 91.5143 0.775108 91.7333 1.10527L94.6918 5.56423C94.8158 5.75114 95.003 5.88714 95.2191 5.94733L100.297 7.36157C100.94 7.54074 101.192 8.31782 100.777 8.84088L97.5008 12.9696C97.3613 13.1453 97.2898 13.3653 97.2994 13.5894L97.5234 18.8556C97.5518 19.5227 96.8908 20.003 96.265 19.7698L91.6074 18.0343C91.2422 17.8982 91 17.5495 91 17.1598L91 15.6L91 13.242L91 8.4L91.0001 5.85402L91 1.32642Z" fill="url(#paint1_linear_53_71)"/>
<path d="M37.4906 1.17228C37.8598 0.615851 38.6769 0.615852 39.0461 1.17228L41.9602 5.56435C42.0842 5.75126 42.2714 5.88726 42.4875 5.94745L47.5651 7.3617C48.2083 7.54087 48.4608 8.31794 48.0457 8.841L44.7691 12.9697C44.6297 13.1454 44.5582 13.3655 44.5677 13.5896L44.7918 18.8557C44.8201 19.5228 44.1591 20.0031 43.5334 19.7699L38.5942 17.9296C38.384 17.8512 38.1527 17.8512 37.9425 17.9296L33.0033 19.7699C32.3776 20.0031 31.7166 19.5228 31.745 18.8557L31.969 13.5896C31.9785 13.3655 31.907 13.1454 31.7676 12.9697L28.491 8.841C28.0759 8.31794 28.3284 7.54087 28.9716 7.3617L34.0492 5.94745C34.2653 5.88726 34.4525 5.75126 34.5765 5.56435L37.4906 1.17228Z" fill="url(#paint2_linear_53_71)" fill-opacity="0.25"/>
<path d="M63.89 1.17228C64.2592 0.615851 65.0763 0.615852 65.4455 1.17228L68.3596 5.56435C68.4836 5.75126 68.6708 5.88726 68.8869 5.94745L73.9645 7.3617C74.6078 7.54087 74.8602 8.31794 74.4451 8.841L71.1685 12.9697C71.0291 13.1454 70.9576 13.3655 70.9671 13.5896L71.1912 18.8557C71.2195 19.5228 70.5585 20.0031 69.9328 19.7699L64.9937 17.9296C64.7835 17.8512 64.5521 17.8512 64.3419 17.9296L59.4027 19.7699C58.777 20.0031 58.116 19.5228 58.1444 18.8557L58.3684 13.5896C58.3779 13.3655 58.3064 13.1454 58.167 12.9697L54.8904 8.841C54.4753 8.31794 54.7278 7.54087 55.3711 7.3617L60.4487 5.94745C60.6648 5.88726 60.8519 5.75126 60.976 5.56435L63.89 1.17228Z" fill="url(#paint3_linear_53_71)" fill-opacity="0.25"/>
<path d="M90.2904 1.17216C90.6596 0.615729 91.4767 0.61573 91.8459 1.17216L94.76 5.56423C94.884 5.75114 95.0712 5.88714 95.2873 5.94733L100.365 7.36157C101.008 7.54074 101.261 8.31782 100.846 8.84088L97.5689 12.9696C97.4295 13.1453 97.358 13.3653 97.3675 13.5894L97.5916 18.8556C97.6199 19.5227 96.9589 20.003 96.3332 19.7698L91.394 17.9294C91.1838 17.8511 90.9525 17.8511 90.7423 17.9294L85.8031 19.7698C85.1774 20.003 84.5164 19.5227 84.5448 18.8556L84.7688 13.5894C84.7783 13.3653 84.7068 13.1453 84.5674 12.9696L81.2908 8.84088C80.8757 8.31782 81.1282 7.54074 81.7715 7.36157L86.8491 5.94733C87.0651 5.88714 87.2523 5.75114 87.3763 5.56423L90.2904 1.17216Z" fill="url(#paint4_linear_53_71)" fill-opacity="0.25"/>
<path d="M116.69 1.17228C117.059 0.615851 117.876 0.615852 118.245 1.17228L121.159 5.56435C121.283 5.75126 121.471 5.88726 121.687 5.94745L126.764 7.3617C127.408 7.54087 127.66 8.31794 127.245 8.841L123.968 12.9697C123.829 13.1454 123.757 13.3655 123.767 13.5896L123.991 18.8557C124.019 19.5228 123.358 20.0031 122.733 19.7699L117.793 17.9296C117.583 17.8512 117.352 17.8512 117.142 17.9296L112.203 19.7699C111.577 20.0031 110.916 19.5228 110.944 18.8557L111.168 13.5896C111.178 13.3655 111.106 13.1454 110.967 12.9697L107.69 8.841C107.275 8.31794 107.528 7.54087 108.171 7.3617L113.248 5.94745C113.465 5.88726 113.652 5.75126 113.776 5.56435L116.69 1.17228Z" fill="url(#paint5_linear_53_71)"/>
<defs>
<linearGradient id="paint0_linear_53_71" x1="0.667969" y1="0" x2="25.8621" y2="3.78086" gradientUnits="userSpaceOnUse">
<stop stop-color="#7CD470"/>
<stop offset="1" stop-color="#5FC977"/>
</linearGradient>
<linearGradient id="paint1_linear_53_71" x1="91" y1="0" x2="103.175" y2="0.960522" gradientUnits="userSpaceOnUse">
<stop stop-color="#7CD470"/>
<stop offset="1" stop-color="#5FC977"/>
</linearGradient>
<linearGradient id="paint2_linear_53_71" x1="27.0684" y1="0.00012207" x2="52.2625" y2="3.78098" gradientUnits="userSpaceOnUse">
<stop stop-color="#7CD470"/>
<stop offset="1" stop-color="#5FC977"/>
</linearGradient>
<linearGradient id="paint3_linear_53_71" x1="53.4678" y1="0.00012207" x2="78.6619" y2="3.78098" gradientUnits="userSpaceOnUse">
<stop stop-color="#7CD470"/>
<stop offset="1" stop-color="#5FC977"/>
</linearGradient>
<linearGradient id="paint4_linear_53_71" x1="79.8682" y1="0" x2="105.062" y2="3.78086" gradientUnits="userSpaceOnUse">
<stop stop-color="#7CD470"/>
<stop offset="1" stop-color="#5FC977"/>
</linearGradient>
<linearGradient id="paint5_linear_53_71" x1="106.268" y1="0.00012207" x2="131.462" y2="3.78098" gradientUnits="userSpaceOnUse">
<stop stop-color="#7CD470"/>
<stop offset="1" stop-color="#5FC977"/>
</linearGradient>
</defs>
</svg>
