<svg width="128" height="23" viewBox="0 0 128 23" fill="none" xmlns="http://www.w3.org/2000/svg">
<path d="M11.0238 1.17216C11.393 0.615729 12.2101 0.61573 12.5793 1.17216L15.4934 5.56423C15.6174 5.75114 15.8046 5.88714 16.0207 5.94733L21.0983 7.36157C21.7415 7.54074 21.994 8.31782 21.5789 8.84088L18.3023 12.9696C18.1629 13.1453 18.0914 13.3653 18.1009 13.5894L18.325 18.8556C18.3533 19.5227 17.6923 20.003 17.0666 19.7698L12.1274 17.9294C11.9172 17.8511 11.6859 17.8511 11.4757 17.9294L6.53653 19.7698C5.91079 20.003 5.24977 19.5227 5.27816 18.8556L5.5022 13.5894C5.51173 13.3653 5.44023 13.1453 5.30079 12.9696L2.02419 8.84088C1.60908 8.31782 1.86156 7.54074 2.50485 7.36157L7.58245 5.94733C7.79854 5.88714 7.98573 5.75114 8.10975 5.56423L11.0238 1.17216Z" fill="url(#paint0_linear_53_78)" fill-opacity="0.25"/>
<path d="M37.4242 1.17228C37.7934 0.615851 38.6105 0.615852 38.9797 1.17228L41.8938 5.56435C42.0178 5.75126 42.205 5.88726 42.421 5.94745L47.4987 7.3617C48.1419 7.54087 48.3944 8.31794 47.9793 8.841L44.7027 12.9697C44.5633 13.1454 44.4918 13.3655 44.5013 13.5896L44.7253 18.8557C44.7537 19.5228 44.0927 20.0031 43.467 19.7699L38.5278 17.9296C38.3176 17.8512 38.0863 17.8512 37.8761 17.9296L32.9369 19.7699C32.3112 20.0031 31.6502 19.5228 31.6785 18.8557L31.9026 13.5896C31.9121 13.3655 31.8406 13.1454 31.7012 12.9697L28.4246 8.841C28.0095 8.31794 28.262 7.54087 28.9052 7.3617L33.9828 5.94745C34.1989 5.88726 34.3861 5.75126 34.5101 5.56435L37.4242 1.17228Z" fill="url(#paint1_linear_53_78)" fill-opacity="0.25"/>
<path d="M63.8236 1.17228C64.1928 0.615851 65.0099 0.615852 65.3791 1.17228L68.2932 5.56435C68.4172 5.75126 68.6044 5.88726 68.8205 5.94745L73.8981 7.3617C74.5413 7.54087 74.7938 8.31794 74.3787 8.841L71.1021 12.9697C70.9627 13.1454 70.8912 13.3655 70.9007 13.5896L71.1248 18.8557C71.1531 19.5228 70.4921 20.0031 69.8664 19.7699L64.9272 17.9296C64.717 17.8512 64.4857 17.8512 64.2755 17.9296L59.3363 19.7699C58.7106 20.0031 58.0496 19.5228 58.078 18.8557L58.302 13.5896C58.3115 13.3655 58.24 13.1454 58.1006 12.9697L54.824 8.841C54.4089 8.31794 54.6614 7.54087 55.3047 7.3617L60.3823 5.94745C60.5983 5.88726 60.7855 5.75126 60.9096 5.56435L63.8236 1.17228Z" fill="url(#paint2_linear_53_78)" fill-opacity="0.25"/>
<path d="M90.224 1.17216C90.5932 0.615729 91.4103 0.61573 91.7795 1.17216L94.6936 5.56423C94.8176 5.75114 95.0048 5.88714 95.2209 5.94733L100.298 7.36157C100.942 7.54074 101.194 8.31782 100.779 8.84088L97.5025 12.9696C97.3631 13.1453 97.2916 13.3653 97.3011 13.5894L97.5251 18.8556C97.5535 19.5227 96.8925 20.003 96.2668 19.7698L91.3276 17.9294C91.1174 17.8511 90.8861 17.8511 90.6759 17.9294L85.7367 19.7698C85.111 20.003 84.45 19.5227 84.4784 18.8556L84.7024 13.5894C84.7119 13.3653 84.6404 13.1453 84.501 12.9696L81.2244 8.84088C80.8093 8.31782 81.0618 7.54074 81.705 7.36157L86.7826 5.94733C86.9987 5.88714 87.1859 5.75114 87.3099 5.56423L90.224 1.17216Z" fill="url(#paint3_linear_53_78)" fill-opacity="0.25"/>
<path d="M116.623 1.17228C116.993 0.615851 117.81 0.615852 118.179 1.17228L121.093 5.56435C121.217 5.75126 121.404 5.88726 121.62 5.94745L126.698 7.3617C127.341 7.54087 127.594 8.31794 127.179 8.841L123.902 12.9697C123.762 13.1454 123.691 13.3655 123.701 13.5896L123.925 18.8557C123.953 19.5228 123.292 20.0031 122.666 19.7699L117.727 17.9296C117.517 17.8512 117.285 17.8512 117.075 17.9296L112.136 19.7699C111.51 20.0031 110.849 19.5228 110.878 18.8557L111.102 13.5896C111.111 13.3655 111.04 13.1454 110.9 12.9697L107.624 8.841C107.209 8.31794 107.461 7.54087 108.104 7.3617L113.182 5.94745C113.398 5.88726 113.585 5.75126 113.709 5.56435L116.623 1.17228Z" fill="url(#paint4_linear_53_78)"/>
<defs>
<linearGradient id="paint0_linear_53_78" x1="0.601563" y1="0" x2="25.7957" y2="3.78086" gradientUnits="userSpaceOnUse">
<stop stop-color="#7CD470"/>
<stop offset="1" stop-color="#5FC977"/>
</linearGradient>
<linearGradient id="paint1_linear_53_78" x1="27.002" y1="0.00012207" x2="52.1961" y2="3.78098" gradientUnits="userSpaceOnUse">
<stop stop-color="#7CD470"/>
<stop offset="1" stop-color="#5FC977"/>
</linearGradient>
<linearGradient id="paint2_linear_53_78" x1="53.4014" y1="0.00012207" x2="78.5955" y2="3.78098" gradientUnits="userSpaceOnUse">
<stop stop-color="#7CD470"/>
<stop offset="1" stop-color="#5FC977"/>
</linearGradient>
<linearGradient id="paint3_linear_53_78" x1="79.8018" y1="0" x2="104.996" y2="3.78086" gradientUnits="userSpaceOnUse">
<stop stop-color="#7CD470"/>
<stop offset="1" stop-color="#5FC977"/>
</linearGradient>
<linearGradient id="paint4_linear_53_78" x1="106.201" y1="0.00012207" x2="131.395" y2="3.78098" gradientUnits="userSpaceOnUse">
<stop stop-color="#7CD470"/>
<stop offset="1" stop-color="#5FC977"/>
</linearGradient>
</defs>
</svg>
