<svg width="128" height="23" viewBox="0 0 128 23" fill="none" xmlns="http://www.w3.org/2000/svg">
<path d="M11.2231 1.17216C11.5922 0.615729 12.4093 0.61573 12.7785 1.17216L15.6926 5.56423C15.8166 5.75114 16.0038 5.88714 16.2199 5.94733L21.2975 7.36157C21.9408 7.54074 22.1933 8.31782 21.7781 8.84088L18.5015 12.9696C18.3621 13.1453 18.2906 13.3653 18.3001 13.5894L18.5242 18.8556C18.5526 19.5227 17.8915 20.003 17.2658 19.7698L12.3267 17.9294C12.1165 17.8511 11.8851 17.8511 11.6749 17.9294L6.73575 19.7698C6.11001 20.003 5.44899 19.5227 5.47738 18.8556L5.70141 13.5894C5.71095 13.3653 5.63945 13.1453 5.50001 12.9696L2.22341 8.84088C1.8083 8.31782 2.06078 7.54074 2.70407 7.36157L7.78167 5.94733C7.99776 5.88714 8.18495 5.75114 8.30896 5.56423L11.2231 1.17216Z" fill="url(#paint0_linear_53_57)" fill-opacity="0.25"/>
<path d="M65 1.32642C65 0.9302 65.5143 0.775108 65.7333 1.10527L68.6918 5.56423C68.8158 5.75114 69.003 5.88714 69.2191 5.94733L74.2967 7.36157C74.94 7.54074 75.1925 8.31782 74.7774 8.84088L71.5008 12.9696C71.3613 13.1453 71.2898 13.3653 71.2994 13.5894L71.5234 18.8556C71.5518 19.5227 70.8908 20.003 70.265 19.7698L65.6074 18.0343C65.2422 17.8982 65 17.5495 65 17.1598L65 15.6L65 13.242L65 8.4L65.0001 5.85402L65 1.32642Z" fill="url(#paint1_linear_53_57)"/>
<path d="M37.6234 1.17228C37.9926 0.615851 38.8097 0.615852 39.1789 1.17228L42.093 5.56435C42.217 5.75126 42.4042 5.88726 42.6203 5.94745L47.6979 7.3617C48.3412 7.54087 48.5936 8.31794 48.1785 8.841L44.9019 12.9697C44.7625 13.1454 44.691 13.3655 44.7005 13.5896L44.9246 18.8557C44.9529 19.5228 44.2919 20.0031 43.6662 19.7699L38.7271 17.9296C38.5169 17.8512 38.2855 17.8512 38.0753 17.9296L33.1361 19.7699C32.5104 20.0031 31.8494 19.5228 31.8778 18.8557L32.1018 13.5896C32.1113 13.3655 32.0398 13.1454 31.9004 12.9697L28.6238 8.841C28.2087 8.31794 28.4612 7.54087 29.1045 7.3617L34.1821 5.94745C34.3982 5.88726 34.5853 5.75126 34.7094 5.56435L37.6234 1.17228Z" fill="url(#paint2_linear_53_57)" fill-opacity="0.25"/>
<path d="M64.0229 1.17228C64.392 0.615851 65.2091 0.615852 65.5783 1.17228L68.4924 5.56435C68.6164 5.75126 68.8036 5.88726 69.0197 5.94745L74.0973 7.3617C74.7406 7.54087 74.9931 8.31794 74.5779 8.841L71.3013 12.9697C71.1619 13.1454 71.0904 13.3655 71.0999 13.5896L71.324 18.8557C71.3524 19.5228 70.6913 20.0031 70.0656 19.7699L65.1265 17.9296C64.9163 17.8512 64.6849 17.8512 64.4747 17.9296L59.5356 19.7699C58.9098 20.0031 58.2488 19.5228 58.2772 18.8557L58.5012 13.5896C58.5108 13.3655 58.4393 13.1454 58.2998 12.9697L55.0232 8.841C54.6081 8.31794 54.8606 7.54087 55.5039 7.3617L60.5815 5.94745C60.7976 5.88726 60.9848 5.75126 61.1088 5.56435L64.0229 1.17228Z" fill="url(#paint3_linear_53_57)" fill-opacity="0.25"/>
<path d="M90.4233 1.17216C90.7924 0.615729 91.6095 0.61573 91.9787 1.17216L94.8928 5.56423C95.0168 5.75114 95.204 5.88714 95.4201 5.94733L100.498 7.36157C101.141 7.54074 101.393 8.31782 100.978 8.84088L97.7017 12.9696C97.5623 13.1453 97.4908 13.3653 97.5003 13.5894L97.7244 18.8556C97.7528 19.5227 97.0917 20.003 96.466 19.7698L91.5269 17.9294C91.3167 17.8511 91.0853 17.8511 90.8751 17.9294L85.9359 19.7698C85.3102 20.003 84.6492 19.5227 84.6776 18.8556L84.9016 13.5894C84.9111 13.3653 84.8396 13.1453 84.7002 12.9696L81.4236 8.84088C81.0085 8.31782 81.261 7.54074 81.9043 7.36157L86.9819 5.94733C87.198 5.88714 87.3851 5.75114 87.5092 5.56423L90.4233 1.17216Z" fill="url(#paint4_linear_53_57)"/>
<path d="M116.823 1.17228C117.192 0.615851 118.009 0.615852 118.378 1.17228L121.292 5.56435C121.416 5.75126 121.603 5.88726 121.819 5.94745L126.897 7.3617C127.54 7.54087 127.793 8.31794 127.378 8.841L124.101 12.9697C123.962 13.1454 123.89 13.3655 123.9 13.5896L124.124 18.8557C124.152 19.5228 123.491 20.0031 122.865 19.7699L117.926 17.9296C117.716 17.8512 117.485 17.8512 117.274 17.9296L112.335 19.7699C111.71 20.0031 111.049 19.5228 111.077 18.8557L111.301 13.5896C111.311 13.3655 111.239 13.1454 111.1 12.9697L107.823 8.841C107.408 8.31794 107.66 7.54087 108.304 7.3617L113.381 5.94745C113.597 5.88726 113.785 5.75126 113.909 5.56435L116.823 1.17228Z" fill="url(#paint5_linear_53_57)"/>
<defs>
<linearGradient id="paint0_linear_53_57" x1="0.800781" y1="0" x2="25.9949" y2="3.78086" gradientUnits="userSpaceOnUse">
<stop stop-color="#7CD470"/>
<stop offset="1" stop-color="#5FC977"/>
</linearGradient>
<linearGradient id="paint1_linear_53_57" x1="65" y1="0" x2="77.1746" y2="0.960522" gradientUnits="userSpaceOnUse">
<stop stop-color="#7CD470"/>
<stop offset="1" stop-color="#5FC977"/>
</linearGradient>
<linearGradient id="paint2_linear_53_57" x1="27.2012" y1="0.00012207" x2="52.3953" y2="3.78098" gradientUnits="userSpaceOnUse">
<stop stop-color="#7CD470"/>
<stop offset="1" stop-color="#5FC977"/>
</linearGradient>
<linearGradient id="paint3_linear_53_57" x1="53.6006" y1="0.00012207" x2="78.7947" y2="3.78098" gradientUnits="userSpaceOnUse">
<stop stop-color="#7CD470"/>
<stop offset="1" stop-color="#5FC977"/>
</linearGradient>
<linearGradient id="paint4_linear_53_57" x1="80.001" y1="0" x2="105.195" y2="3.78086" gradientUnits="userSpaceOnUse">
<stop stop-color="#7CD470"/>
<stop offset="1" stop-color="#5FC977"/>
</linearGradient>
<linearGradient id="paint5_linear_53_57" x1="106.4" y1="0.00012207" x2="131.595" y2="3.78098" gradientUnits="userSpaceOnUse">
<stop stop-color="#7CD470"/>
<stop offset="1" stop-color="#5FC977"/>
</linearGradient>
</defs>
</svg>
