<svg width="128" height="23" viewBox="0 0 128 23" fill="none" xmlns="http://www.w3.org/2000/svg">
<path d="M11.1567 1.17216C11.5258 0.615729 12.3429 0.61573 12.7121 1.17216L15.6262 5.56423C15.7502 5.75114 15.9374 5.88714 16.1535 5.94733L21.2311 7.36157C21.8744 7.54074 22.1268 8.31782 21.7117 8.84088L18.4351 12.9696C18.2957 13.1453 18.2242 13.3653 18.2337 13.5894L18.4578 18.8556C18.4862 19.5227 17.8251 20.003 17.1994 19.7698L12.2603 17.9294C12.0501 17.8511 11.8187 17.8511 11.6085 17.9294L6.66935 19.7698C6.0436 20.003 5.38259 19.5227 5.41097 18.8556L5.63501 13.5894C5.64454 13.3653 5.57304 13.1453 5.4336 12.9696L2.157 8.84088C1.74189 8.31782 1.99438 7.54074 2.63766 7.36157L7.71526 5.94733C7.93136 5.88714 8.11854 5.75114 8.24256 5.56423L11.1567 1.17216Z" fill="url(#paint0_linear_53_64)" fill-opacity="0.25"/>
<path d="M37.557 1.17228C37.9262 0.615851 38.7433 0.615852 39.1125 1.17228L42.0266 5.56435C42.1506 5.75126 42.3378 5.88726 42.5539 5.94745L47.6315 7.3617C48.2747 7.54087 48.5272 8.31794 48.1121 8.841L44.8355 12.9697C44.6961 13.1454 44.6246 13.3655 44.6341 13.5896L44.8582 18.8557C44.8865 19.5228 44.2255 20.0031 43.5998 19.7699L38.6606 17.9296C38.4504 17.8512 38.2191 17.8512 38.0089 17.9296L33.0697 19.7699C32.444 20.0031 31.783 19.5228 31.8114 18.8557L32.0354 13.5896C32.0449 13.3655 31.9734 13.1454 31.834 12.9697L28.5574 8.841C28.1423 8.31794 28.3948 7.54087 29.0381 7.3617L34.1157 5.94745C34.3317 5.88726 34.5189 5.75126 34.6429 5.56435L37.557 1.17228Z" fill="url(#paint1_linear_53_64)" fill-opacity="0.25"/>
<path d="M63.9565 1.17228C64.3256 0.615851 65.1427 0.615852 65.5119 1.17228L68.426 5.56435C68.55 5.75126 68.7372 5.88726 68.9533 5.94745L74.0309 7.3617C74.6742 7.54087 74.9266 8.31794 74.5115 8.841L71.2349 12.9697C71.0955 13.1454 71.024 13.3655 71.0335 13.5896L71.2576 18.8557C71.286 19.5228 70.6249 20.0031 69.9992 19.7699L65.0601 17.9296C64.8499 17.8512 64.6185 17.8512 64.4083 17.9296L59.4691 19.7699C58.8434 20.0031 58.1824 19.5228 58.2108 18.8557L58.4348 13.5896C58.4443 13.3655 58.3728 13.1454 58.2334 12.9697L54.9568 8.841C54.5417 8.31794 54.7942 7.54087 55.4375 7.3617L60.5151 5.94745C60.7312 5.88726 60.9183 5.75126 61.0424 5.56435L63.9565 1.17228Z" fill="url(#paint2_linear_53_64)" fill-opacity="0.25"/>
<path d="M90.3568 1.17216C90.726 0.615729 91.5431 0.61573 91.9123 1.17216L94.8264 5.56423C94.9504 5.75114 95.1376 5.88714 95.3537 5.94733L100.431 7.36157C101.075 7.54074 101.327 8.31782 100.912 8.84088L97.6353 12.9696C97.4959 13.1453 97.4244 13.3653 97.4339 13.5894L97.658 18.8556C97.6863 19.5227 97.0253 20.003 96.3996 19.7698L91.4604 17.9294C91.2503 17.8511 91.0189 17.8511 90.8087 17.9294L85.8695 19.7698C85.2438 20.003 84.5828 19.5227 84.6112 18.8556L84.8352 13.5894C84.8447 13.3653 84.7732 13.1453 84.6338 12.9696L81.3572 8.84088C80.9421 8.31782 81.1946 7.54074 81.8379 7.36157L86.9155 5.94733C87.1316 5.88714 87.3187 5.75114 87.4428 5.56423L90.3568 1.17216Z" fill="url(#paint3_linear_53_64)"/>
<path d="M116.756 1.17228C117.125 0.615851 117.943 0.615852 118.312 1.17228L121.226 5.56435C121.35 5.75126 121.537 5.88726 121.753 5.94745L126.831 7.3617C127.474 7.54087 127.726 8.31794 127.311 8.841L124.035 12.9697C123.895 13.1454 123.824 13.3655 123.833 13.5896L124.057 18.8557C124.086 19.5228 123.425 20.0031 122.799 19.7699L117.86 17.9296C117.65 17.8512 117.418 17.8512 117.208 17.9296L112.269 19.7699C111.643 20.0031 110.982 19.5228 111.011 18.8557L111.235 13.5896C111.244 13.3655 111.173 13.1454 111.033 12.9697L107.757 8.841C107.342 8.31794 107.594 7.54087 108.237 7.3617L113.315 5.94745C113.531 5.88726 113.718 5.75126 113.842 5.56435L116.756 1.17228Z" fill="url(#paint4_linear_53_64)"/>
<defs>
<linearGradient id="paint0_linear_53_64" x1="0.734375" y1="0" x2="25.9285" y2="3.78086" gradientUnits="userSpaceOnUse">
<stop stop-color="#7CD470"/>
<stop offset="1" stop-color="#5FC977"/>
</linearGradient>
<linearGradient id="paint1_linear_53_64" x1="27.1348" y1="0.00012207" x2="52.3289" y2="3.78098" gradientUnits="userSpaceOnUse">
<stop stop-color="#7CD470"/>
<stop offset="1" stop-color="#5FC977"/>
</linearGradient>
<linearGradient id="paint2_linear_53_64" x1="53.5342" y1="0.00012207" x2="78.7283" y2="3.78098" gradientUnits="userSpaceOnUse">
<stop stop-color="#7CD470"/>
<stop offset="1" stop-color="#5FC977"/>
</linearGradient>
<linearGradient id="paint3_linear_53_64" x1="79.9346" y1="0" x2="105.129" y2="3.78086" gradientUnits="userSpaceOnUse">
<stop stop-color="#7CD470"/>
<stop offset="1" stop-color="#5FC977"/>
</linearGradient>
<linearGradient id="paint4_linear_53_64" x1="106.334" y1="0.00012207" x2="131.528" y2="3.78098" gradientUnits="userSpaceOnUse">
<stop stop-color="#7CD470"/>
<stop offset="1" stop-color="#5FC977"/>
</linearGradient>
</defs>
</svg>
