<svg width="128" height="23" viewBox="0 0 128 23" fill="none" xmlns="http://www.w3.org/2000/svg">
<path d="M11.3559 1.17216C11.7251 0.615729 12.5421 0.61573 12.9113 1.17216L15.8254 5.56423C15.9494 5.75114 16.1366 5.88714 16.3527 5.94733L21.4303 7.36157C22.0736 7.54074 22.3261 8.31782 21.911 8.84088L18.6344 12.9696C18.4949 13.1453 18.4234 13.3653 18.4329 13.5894L18.657 18.8556C18.6854 19.5227 18.0244 20.003 17.3986 19.7698L12.4595 17.9294C12.2493 17.8511 12.0179 17.8511 11.8077 17.9294L6.86856 19.7698C6.24282 20.003 5.5818 19.5227 5.61019 18.8556L5.83423 13.5894C5.84376 13.3653 5.77226 13.1453 5.63282 12.9696L2.35622 8.84088C1.94111 8.31782 2.1936 7.54074 2.83688 7.36157L7.91448 5.94733C8.13057 5.88714 8.31776 5.75114 8.44178 5.56423L11.3559 1.17216Z" fill="url(#paint0_linear_53_43)" fill-opacity="0.25"/>
<path d="M39 1.32642C39 0.9302 39.5143 0.775108 39.7333 1.10527L42.6918 5.56423C42.8158 5.75114 43.003 5.88714 43.2191 5.94733L48.2967 7.36157C48.94 7.54074 49.1925 8.31782 48.7774 8.84088L45.5008 12.9696C45.3613 13.1453 45.2898 13.3653 45.2994 13.5894L45.5234 18.8556C45.5518 19.5227 44.8908 20.003 44.265 19.7698L39.6074 18.0343C39.2422 17.8982 39 17.5495 39 17.1598L39 15.6L39 13.242L39 8.4L39.0001 5.85402L39 1.32642Z" fill="url(#paint1_linear_53_43)"/>
<path d="M37.7563 1.17228C38.1254 0.615851 38.9425 0.615852 39.3117 1.17228L42.2258 5.56435C42.3498 5.75126 42.537 5.88726 42.7531 5.94745L47.8307 7.3617C48.474 7.54087 48.7265 8.31794 48.3113 8.841L45.0347 12.9697C44.8953 13.1454 44.8238 13.3655 44.8333 13.5896L45.0574 18.8557C45.0858 19.5228 44.4247 20.0031 43.799 19.7699L38.8599 17.9296C38.6497 17.8512 38.4183 17.8512 38.2081 17.9296L33.269 19.7699C32.6432 20.0031 31.9822 19.5228 32.0106 18.8557L32.2346 13.5896C32.2442 13.3655 32.1727 13.1454 32.0332 12.9697L28.7566 8.841C28.3415 8.31794 28.594 7.54087 29.2373 7.3617L34.3149 5.94745C34.531 5.88726 34.7182 5.75126 34.8422 5.56435L37.7563 1.17228Z" fill="url(#paint2_linear_53_43)" fill-opacity="0.25"/>
<path d="M64.1557 1.17228C64.5249 0.615851 65.3419 0.615852 65.7111 1.17228L68.6252 5.56435C68.7492 5.75126 68.9364 5.88726 69.1525 5.94745L74.2301 7.3617C74.8734 7.54087 75.1259 8.31794 74.7108 8.841L71.4342 12.9697C71.2947 13.1454 71.2232 13.3655 71.2328 13.5896L71.4568 18.8557C71.4852 19.5228 70.8242 20.0031 70.1984 19.7699L65.2593 17.9296C65.0491 17.8512 64.8177 17.8512 64.6075 17.9296L59.6684 19.7699C59.0426 20.0031 58.3816 19.5228 58.41 18.8557L58.634 13.5896C58.6436 13.3655 58.5721 13.1454 58.4326 12.9697L55.156 8.841C54.7409 8.31794 54.9934 7.54087 55.6367 7.3617L60.7143 5.94745C60.9304 5.88726 61.1176 5.75126 61.2416 5.56435L64.1557 1.17228Z" fill="url(#paint3_linear_53_43)"/>
<path d="M90.5561 1.17216C90.9253 0.615729 91.7423 0.61573 92.1115 1.17216L95.0256 5.56423C95.1496 5.75114 95.3368 5.88714 95.5529 5.94733L100.63 7.36157C101.274 7.54074 101.526 8.31782 101.111 8.84088L97.8345 12.9696C97.6951 13.1453 97.6236 13.3653 97.6331 13.5894L97.8572 18.8556C97.8856 19.5227 97.2245 20.003 96.5988 19.7698L91.6597 17.9294C91.4495 17.8511 91.2181 17.8511 91.0079 17.9294L86.0688 19.7698C85.443 20.003 84.782 19.5227 84.8104 18.8556L85.0344 13.5894C85.044 13.3653 84.9725 13.1453 84.833 12.9696L81.5564 8.84088C81.1413 8.31782 81.3938 7.54074 82.0371 7.36157L87.1147 5.94733C87.3308 5.88714 87.518 5.75114 87.642 5.56423L90.5561 1.17216Z" fill="url(#paint4_linear_53_43)"/>
<path d="M116.955 1.17228C117.325 0.615851 118.142 0.615852 118.511 1.17228L121.425 5.56435C121.549 5.75126 121.736 5.88726 121.952 5.94745L127.03 7.3617C127.673 7.54087 127.926 8.31794 127.511 8.841L124.234 12.9697C124.095 13.1454 124.023 13.3655 124.033 13.5896L124.257 18.8557C124.285 19.5228 123.624 20.0031 122.998 19.7699L118.059 17.9296C117.849 17.8512 117.618 17.8512 117.407 17.9296L112.468 19.7699C111.842 20.0031 111.181 19.5228 111.21 18.8557L111.434 13.5896C111.443 13.3655 111.372 13.1454 111.232 12.9697L107.956 8.841C107.541 8.31794 107.793 7.54087 108.436 7.3617L113.514 5.94745C113.73 5.88726 113.917 5.75126 114.041 5.56435L116.955 1.17228Z" fill="url(#paint5_linear_53_43)"/>
<defs>
<linearGradient id="paint0_linear_53_43" x1="0.933594" y1="0" x2="26.1277" y2="3.78086" gradientUnits="userSpaceOnUse">
<stop stop-color="#7CD470"/>
<stop offset="1" stop-color="#5FC977"/>
</linearGradient>
<linearGradient id="paint1_linear_53_43" x1="39" y1="0" x2="51.1746" y2="0.960522" gradientUnits="userSpaceOnUse">
<stop stop-color="#7CD470"/>
<stop offset="1" stop-color="#5FC977"/>
</linearGradient>
<linearGradient id="paint2_linear_53_43" x1="27.334" y1="0.00012207" x2="52.5281" y2="3.78098" gradientUnits="userSpaceOnUse">
<stop stop-color="#7CD470"/>
<stop offset="1" stop-color="#5FC977"/>
</linearGradient>
<linearGradient id="paint3_linear_53_43" x1="53.7334" y1="0.00012207" x2="78.9275" y2="3.78098" gradientUnits="userSpaceOnUse">
<stop stop-color="#7CD470"/>
<stop offset="1" stop-color="#5FC977"/>
</linearGradient>
<linearGradient id="paint4_linear_53_43" x1="80.1338" y1="0" x2="105.328" y2="3.78086" gradientUnits="userSpaceOnUse">
<stop stop-color="#7CD470"/>
<stop offset="1" stop-color="#5FC977"/>
</linearGradient>
<linearGradient id="paint5_linear_53_43" x1="106.533" y1="0.00012207" x2="131.727" y2="3.78098" gradientUnits="userSpaceOnUse">
<stop stop-color="#7CD470"/>
<stop offset="1" stop-color="#5FC977"/>
</linearGradient>
</defs>
</svg>
