<svg width="128" height="23" viewBox="0 0 128 23" fill="none" xmlns="http://www.w3.org/2000/svg">
<path d="M11.2895 1.17216C11.6587 0.615729 12.4757 0.61573 12.8449 1.17216L15.759 5.56423C15.883 5.75114 16.0702 5.88714 16.2863 5.94733L21.3639 7.36157C22.0072 7.54074 22.2597 8.31782 21.8445 8.84088L18.5679 12.9696C18.4285 13.1453 18.357 13.3653 18.3665 13.5894L18.5906 18.8556C18.619 19.5227 17.9579 20.003 17.3322 19.7698L12.3931 17.9294C12.1829 17.8511 11.9515 17.8511 11.7413 17.9294L6.80216 19.7698C6.17642 20.003 5.5154 19.5227 5.54378 18.8556L5.76782 13.5894C5.77736 13.3653 5.70586 13.1453 5.56641 12.9696L2.28982 8.84088C1.8747 8.31782 2.12719 7.54074 2.77047 7.36157L7.84808 5.94733C8.06417 5.88714 8.25135 5.75114 8.37537 5.56423L11.2895 1.17216Z" fill="url(#paint0_linear_53_50)" fill-opacity="0.25"/>
<path d="M37.6899 1.17228C38.059 0.615851 38.8761 0.615852 39.2453 1.17228L42.1594 5.56435C42.2834 5.75126 42.4706 5.88726 42.6867 5.94745L47.7643 7.3617C48.4076 7.54087 48.66 8.31794 48.2449 8.841L44.9683 12.9697C44.8289 13.1454 44.7574 13.3655 44.7669 13.5896L44.991 18.8557C45.0194 19.5228 44.3583 20.0031 43.7326 19.7699L38.7935 17.9296C38.5833 17.8512 38.3519 17.8512 38.1417 17.9296L33.2025 19.7699C32.5768 20.0031 31.9158 19.5228 31.9442 18.8557L32.1682 13.5896C32.1777 13.3655 32.1062 13.1454 31.9668 12.9697L28.6902 8.841C28.2751 8.31794 28.5276 7.54087 29.1709 7.3617L34.2485 5.94745C34.4646 5.88726 34.6517 5.75126 34.7758 5.56435L37.6899 1.17228Z" fill="url(#paint1_linear_53_50)" fill-opacity="0.25"/>
<path d="M64.0893 1.17228C64.4585 0.615851 65.2755 0.615852 65.6447 1.17228L68.5588 5.56435C68.6828 5.75126 68.87 5.88726 69.0861 5.94745L74.1637 7.3617C74.807 7.54087 75.0595 8.31794 74.6443 8.841L71.3678 12.9697C71.2283 13.1454 71.1568 13.3655 71.1663 13.5896L71.3904 18.8557C71.4188 19.5228 70.7578 20.0031 70.132 19.7699L65.1929 17.9296C64.9827 17.8512 64.7513 17.8512 64.5411 17.9296L59.602 19.7699C58.9762 20.0031 58.3152 19.5228 58.3436 18.8557L58.5676 13.5896C58.5772 13.3655 58.5057 13.1454 58.3662 12.9697L55.0896 8.841C54.6745 8.31794 54.927 7.54087 55.5703 7.3617L60.6479 5.94745C60.864 5.88726 61.0512 5.75126 61.1752 5.56435L64.0893 1.17228Z" fill="url(#paint2_linear_53_50)"/>
<path d="M90.4897 1.17216C90.8588 0.615729 91.6759 0.61573 92.0451 1.17216L94.9592 5.56423C95.0832 5.75114 95.2704 5.88714 95.4865 5.94733L100.564 7.36157C101.207 7.54074 101.46 8.31782 101.045 8.84088L97.7681 12.9696C97.6287 13.1453 97.5572 13.3653 97.5667 13.5894L97.7908 18.8556C97.8192 19.5227 97.1581 20.003 96.5324 19.7698L91.5933 17.9294C91.3831 17.8511 91.1517 17.8511 90.9415 17.9294L86.0024 19.7698C85.3766 20.003 84.7156 19.5227 84.744 18.8556L84.968 13.5894C84.9776 13.3653 84.9061 13.1453 84.7666 12.9696L81.49 8.84088C81.0749 8.31782 81.3274 7.54074 81.9707 7.36157L87.0483 5.94733C87.2644 5.88714 87.4515 5.75114 87.5756 5.56423L90.4897 1.17216Z" fill="url(#paint3_linear_53_50)"/>
<path d="M116.889 1.17228C117.258 0.615851 118.075 0.615852 118.445 1.17228L121.359 5.56435C121.483 5.75126 121.67 5.88726 121.886 5.94745L126.963 7.3617C127.607 7.54087 127.859 8.31794 127.444 8.841L124.168 12.9697C124.028 13.1454 123.957 13.3655 123.966 13.5896L124.19 18.8557C124.219 19.5228 123.558 20.0031 122.932 19.7699L117.993 17.9296C117.782 17.8512 117.551 17.8512 117.341 17.9296L112.402 19.7699C111.776 20.0031 111.115 19.5228 111.143 18.8557L111.367 13.5896C111.377 13.3655 111.305 13.1454 111.166 12.9697L107.889 8.841C107.474 8.31794 107.727 7.54087 108.37 7.3617L113.448 5.94745C113.664 5.88726 113.851 5.75126 113.975 5.56435L116.889 1.17228Z" fill="url(#paint4_linear_53_50)"/>
<defs>
<linearGradient id="paint0_linear_53_50" x1="0.867188" y1="0" x2="26.0613" y2="3.78086" gradientUnits="userSpaceOnUse">
<stop stop-color="#7CD470"/>
<stop offset="1" stop-color="#5FC977"/>
</linearGradient>
<linearGradient id="paint1_linear_53_50" x1="27.2676" y1="0.00012207" x2="52.4617" y2="3.78098" gradientUnits="userSpaceOnUse">
<stop stop-color="#7CD470"/>
<stop offset="1" stop-color="#5FC977"/>
</linearGradient>
<linearGradient id="paint2_linear_53_50" x1="53.667" y1="0.00012207" x2="78.8611" y2="3.78098" gradientUnits="userSpaceOnUse">
<stop stop-color="#7CD470"/>
<stop offset="1" stop-color="#5FC977"/>
</linearGradient>
<linearGradient id="paint3_linear_53_50" x1="80.0674" y1="0" x2="105.262" y2="3.78086" gradientUnits="userSpaceOnUse">
<stop stop-color="#7CD470"/>
<stop offset="1" stop-color="#5FC977"/>
</linearGradient>
<linearGradient id="paint4_linear_53_50" x1="106.467" y1="0.00012207" x2="131.661" y2="3.78098" gradientUnits="userSpaceOnUse">
<stop stop-color="#7CD470"/>
<stop offset="1" stop-color="#5FC977"/>
</linearGradient>
</defs>
</svg>
