<svg width="128" height="23" viewBox="0 0 128 23" fill="none" xmlns="http://www.w3.org/2000/svg">
<path d="M11.2221 1.77214C11.5913 1.2157 12.4083 1.21571 12.7775 1.77214L15.6916 6.1642C15.8156 6.35112 16.0028 6.48712 16.2189 6.5473L21.2965 7.96155C21.9398 8.14072 22.1923 8.91779 21.7772 9.44086L18.5006 13.5695C18.3611 13.7453 18.2896 13.9653 18.2992 14.1894L18.5232 19.4555C18.5516 20.1227 17.8906 20.603 17.2648 20.3698L12.3257 18.5294C12.1155 18.4511 11.8841 18.4511 11.6739 18.5294L6.73477 20.3698C6.10903 20.603 5.44802 20.1227 5.4764 19.4555L5.70044 14.1894C5.70997 13.9653 5.63847 13.7453 5.49903 13.5695L2.22243 9.44086C1.80732 8.91779 2.05981 8.14072 2.70309 7.96155L7.78069 6.5473C7.99678 6.48712 8.18397 6.35112 8.30799 6.1642L11.2221 1.77214Z" fill="url(#paint0_linear_53_29)" fill-opacity="0.25"/>
<path d="M12 1.9264C12 1.53018 12.5143 1.37508 12.7333 1.70524L15.6918 6.1642C15.8158 6.35112 16.003 6.48712 16.2191 6.5473L21.2967 7.96155C21.94 8.14072 22.1925 8.91779 21.7774 9.44086L18.5008 13.5695C18.3613 13.7453 18.2898 13.9653 18.2994 14.1894L18.5234 19.4555C18.5518 20.1227 17.8908 20.603 17.265 20.3698L12.6074 18.6343C12.2422 18.4982 12 18.1495 12 17.7597L12 16.2L12 13.842L12 8.99998L12.0001 6.45399L12 1.9264Z" fill="url(#paint1_linear_53_29)"/>
<path d="M37.6225 1.77226C37.9917 1.21583 38.8087 1.21583 39.1779 1.77226L42.092 6.16432C42.216 6.35124 42.4032 6.48724 42.6193 6.54743L47.6969 7.96167C48.3402 8.14084 48.5927 8.91791 48.1776 9.44098L44.901 13.5697C44.7615 13.7454 44.69 13.9654 44.6995 14.1895L44.9236 19.4557C44.952 20.1228 44.291 20.6031 43.6652 20.3699L38.7261 18.5295C38.5159 18.4512 38.2845 18.4512 38.0743 18.5295L33.1352 20.3699C32.5094 20.6031 31.8484 20.1228 31.8768 19.4557L32.1008 14.1895C32.1104 13.9654 32.0389 13.7454 31.8994 13.5697L28.6228 9.44098C28.2077 8.91791 28.4602 8.14084 29.1035 7.96167L34.1811 6.54743C34.3972 6.48724 34.5844 6.35124 34.7084 6.16432L37.6225 1.77226Z" fill="url(#paint2_linear_53_29)"/>
<path d="M64.0219 1.77226C64.3911 1.21583 65.2081 1.21583 65.5773 1.77226L68.4914 6.16432C68.6154 6.35124 68.8026 6.48724 69.0187 6.54743L74.0963 7.96167C74.7396 8.14084 74.9921 8.91791 74.577 9.44098L71.3004 13.5697C71.1609 13.7454 71.0894 13.9654 71.099 14.1895L71.323 19.4557C71.3514 20.1228 70.6904 20.6031 70.0646 20.3699L65.1255 18.5295C64.9153 18.4512 64.6839 18.4512 64.4737 18.5295L59.5346 20.3699C58.9088 20.6031 58.2478 20.1228 58.2762 19.4557L58.5002 14.1895C58.5098 13.9654 58.4383 13.7454 58.2988 13.5697L55.0222 9.44098C54.6071 8.91791 54.8596 8.14084 55.5029 7.96167L60.5805 6.54743C60.7966 6.48724 60.9838 6.35124 61.1078 6.16432L64.0219 1.77226Z" fill="url(#paint3_linear_53_29)"/>
<path d="M90.4223 1.77214C90.7915 1.2157 91.6085 1.21571 91.9777 1.77214L94.8918 6.1642C95.0158 6.35112 95.203 6.48712 95.4191 6.5473L100.497 7.96155C101.14 8.14072 101.392 8.91779 100.977 9.44086L97.7008 13.5695C97.5613 13.7453 97.4898 13.9653 97.4994 14.1894L97.7234 19.4555C97.7518 20.1227 97.0908 20.603 96.465 20.3698L91.5259 18.5294C91.3157 18.4511 91.0843 18.4511 90.8741 18.5294L85.935 20.3698C85.3092 20.603 84.6482 20.1227 84.6766 19.4555L84.9006 14.1894C84.9102 13.9653 84.8387 13.7453 84.6992 13.5695L81.4226 9.44086C81.0075 8.91779 81.26 8.14072 81.9033 7.96155L86.9809 6.5473C87.197 6.48712 87.3842 6.35112 87.5082 6.1642L90.4223 1.77214Z" fill="url(#paint4_linear_53_29)"/>
<path d="M116.822 1.77226C117.191 1.21583 118.008 1.21583 118.377 1.77226L121.291 6.16432C121.415 6.35124 121.602 6.48724 121.819 6.54743L126.896 7.96167C127.539 8.14084 127.792 8.91791 127.377 9.44098L124.1 13.5697C123.961 13.7454 123.889 13.9654 123.899 14.1895L124.123 19.4557C124.151 20.1228 123.49 20.6031 122.864 20.3699L117.925 18.5295C117.715 18.4512 117.484 18.4512 117.274 18.5295L112.334 20.3699C111.709 20.6031 111.048 20.1228 111.076 19.4557L111.3 14.1895C111.31 13.9654 111.238 13.7454 111.099 13.5697L107.822 9.44098C107.407 8.91791 107.659 8.14084 108.303 7.96167L113.38 6.54743C113.596 6.48724 113.784 6.35124 113.908 6.16432L116.822 1.77226Z" fill="url(#paint5_linear_53_29)"/>
<defs>
<linearGradient id="paint0_linear_53_29" x1="0.799805" y1="0.599976" x2="25.9939" y2="4.38083" gradientUnits="userSpaceOnUse">
<stop stop-color="#7CD470"/>
<stop offset="1" stop-color="#5FC977"/>
</linearGradient>
<linearGradient id="paint1_linear_53_29" x1="12" y1="0.599976" x2="24.1746" y2="1.5605" gradientUnits="userSpaceOnUse">
<stop stop-color="#7CD470"/>
<stop offset="1" stop-color="#5FC977"/>
</linearGradient>
<linearGradient id="paint2_linear_53_29" x1="27.2002" y1="0.600098" x2="52.3943" y2="4.38095" gradientUnits="userSpaceOnUse">
<stop stop-color="#7CD470"/>
<stop offset="1" stop-color="#5FC977"/>
</linearGradient>
<linearGradient id="paint3_linear_53_29" x1="53.5996" y1="0.600098" x2="78.7938" y2="4.38095" gradientUnits="userSpaceOnUse">
<stop stop-color="#7CD470"/>
<stop offset="1" stop-color="#5FC977"/>
</linearGradient>
<linearGradient id="paint4_linear_53_29" x1="80" y1="0.599976" x2="105.194" y2="4.38083" gradientUnits="userSpaceOnUse">
<stop stop-color="#7CD470"/>
<stop offset="1" stop-color="#5FC977"/>
</linearGradient>
<linearGradient id="paint5_linear_53_29" x1="106.399" y1="0.600098" x2="131.594" y2="4.38095" gradientUnits="userSpaceOnUse">
<stop stop-color="#7CD470"/>
<stop offset="1" stop-color="#5FC977"/>
</linearGradient>
</defs>
</svg>
