<svg width="127" height="23" viewBox="0 0 127 23" fill="none" xmlns="http://www.w3.org/2000/svg">
<path d="M10.4223 1.17216C10.7915 0.615729 11.6085 0.61573 11.9777 1.17216L14.8918 5.56423C15.0158 5.75114 15.203 5.88714 15.4191 5.94733L20.4967 7.36157C21.14 7.54074 21.3925 8.31782 20.9774 8.84088L17.7008 12.9696C17.5613 13.1453 17.4898 13.3653 17.4994 13.5894L17.7234 18.8556C17.7518 19.5227 17.0908 20.003 16.465 19.7698L11.5259 17.9294C11.3157 17.8511 11.0843 17.8511 10.8741 17.9294L5.93497 19.7698C5.30923 20.003 4.64821 19.5227 4.67659 18.8556L4.90063 13.5894C4.91017 13.3653 4.83867 13.1453 4.69923 12.9696L1.42263 8.84088C1.00752 8.31782 1.26 7.54074 1.90329 7.36157L6.98089 5.94733C7.19698 5.88714 7.38417 5.75114 7.50818 5.56423L10.4223 1.17216Z" fill="url(#paint0_linear_53_141)"/>
<path d="M36.8227 1.17228C37.1919 0.615851 38.0089 0.615852 38.3781 1.17228L41.2922 5.56435C41.4162 5.75126 41.6034 5.88726 41.8195 5.94745L46.8971 7.3617C47.5404 7.54087 47.7929 8.31794 47.3777 8.841L44.1012 12.9697C43.9617 13.1454 43.8902 13.3655 43.8997 13.5896L44.1238 18.8557C44.1522 19.5228 43.4911 20.0031 42.8654 19.7699L37.9263 17.9296C37.7161 17.8512 37.4847 17.8512 37.2745 17.9296L32.3354 19.7699C31.7096 20.0031 31.0486 19.5228 31.077 18.8557L31.301 13.5896C31.3106 13.3655 31.2391 13.1454 31.0996 12.9697L27.823 8.841C27.4079 8.31794 27.6604 7.54087 28.3037 7.3617L33.3813 5.94745C33.5974 5.88726 33.7846 5.75126 33.9086 5.56435L36.8227 1.17228Z" fill="url(#paint1_linear_53_141)"/>
<path d="M63.2221 1.17228C63.5913 0.615851 64.4083 0.615852 64.7775 1.17228L67.6916 5.56435C67.8156 5.75126 68.0028 5.88726 68.2189 5.94745L73.2965 7.3617C73.9398 7.54087 74.1923 8.31794 73.7772 8.841L70.5006 12.9697C70.3611 13.1454 70.2896 13.3655 70.2992 13.5896L70.5232 18.8557C70.5516 19.5228 69.8906 20.0031 69.2648 19.7699L64.3257 17.9296C64.1155 17.8512 63.8841 17.8512 63.6739 17.9296L58.7348 19.7699C58.109 20.0031 57.448 19.5228 57.4764 18.8557L57.7004 13.5896C57.71 13.3655 57.6385 13.1454 57.499 12.9697L54.2224 8.841C53.8073 8.31794 54.0598 7.54087 54.7031 7.3617L59.7807 5.94745C59.9968 5.88726 60.184 5.75126 60.308 5.56435L63.2221 1.17228Z" fill="url(#paint2_linear_53_141)"/>
<path d="M89.6225 1.17216C89.9917 0.615729 90.8087 0.61573 91.1779 1.17216L94.092 5.56423C94.216 5.75114 94.4032 5.88714 94.6193 5.94733L99.6969 7.36157C100.34 7.54074 100.593 8.31782 100.178 8.84088L96.901 12.9696C96.7615 13.1453 96.69 13.3653 96.6995 13.5894L96.9236 18.8556C96.952 19.5227 96.291 20.003 95.6652 19.7698L90.7261 17.9294C90.5159 17.8511 90.2845 17.8511 90.0743 17.9294L85.1352 19.7698C84.5094 20.003 83.8484 19.5227 83.8768 18.8556L84.1008 13.5894C84.1104 13.3653 84.0389 13.1453 83.8994 12.9696L80.6228 8.84088C80.2077 8.31782 80.4602 7.54074 81.1035 7.36157L86.1811 5.94733C86.3972 5.88714 86.5844 5.75114 86.7084 5.56423L89.6225 1.17216Z" fill="url(#paint3_linear_53_141)"/>
<path d="M116.022 1.17228C116.391 0.615851 117.208 0.615852 117.577 1.17228L120.491 5.56435C120.615 5.75126 120.803 5.88726 121.019 5.94745L126.096 7.3617C126.74 7.54087 126.992 8.31794 126.577 8.841L123.3 12.9697C123.161 13.1454 123.089 13.3655 123.099 13.5896L123.323 18.8557C123.351 19.5228 122.69 20.0031 122.065 19.7699L117.125 17.9296C116.915 17.8512 116.684 17.8512 116.474 17.9296L111.535 19.7699C110.909 20.0031 110.248 19.5228 110.276 18.8557L110.5 13.5896C110.51 13.3655 110.438 13.1454 110.299 12.9697L107.022 8.841C106.607 8.31794 106.86 7.54087 107.503 7.3617L112.58 5.94745C112.797 5.88726 112.984 5.75126 113.108 5.56435L116.022 1.17228Z" fill="url(#paint4_linear_53_141)"/>
<defs>
<linearGradient id="paint0_linear_53_141" x1="0" y1="0" x2="25.1941" y2="3.78086" gradientUnits="userSpaceOnUse">
<stop stop-color="#7CD470"/>
<stop offset="1" stop-color="#5FC977"/>
</linearGradient>
<linearGradient id="paint1_linear_53_141" x1="26.4004" y1="0.00012207" x2="51.5945" y2="3.78098" gradientUnits="userSpaceOnUse">
<stop stop-color="#7CD470"/>
<stop offset="1" stop-color="#5FC977"/>
</linearGradient>
<linearGradient id="paint2_linear_53_141" x1="52.7998" y1="0.00012207" x2="77.9939" y2="3.78098" gradientUnits="userSpaceOnUse">
<stop stop-color="#7CD470"/>
<stop offset="1" stop-color="#5FC977"/>
</linearGradient>
<linearGradient id="paint3_linear_53_141" x1="79.2002" y1="0" x2="104.394" y2="3.78086" gradientUnits="userSpaceOnUse">
<stop stop-color="#7CD470"/>
<stop offset="1" stop-color="#5FC977"/>
</linearGradient>
<linearGradient id="paint4_linear_53_141" x1="105.6" y1="0.00012207" x2="130.794" y2="3.78098" gradientUnits="userSpaceOnUse">
<stop stop-color="#7CD470"/>
<stop offset="1" stop-color="#5FC977"/>
</linearGradient>
</defs>
</svg>
