<svg width="200" height="27" viewBox="0 0 200 27" fill="none" xmlns="http://www.w3.org/2000/svg">
<path d="M26.2053 3.536V26H20.7333V12.528L15.7093 26H11.2933L6.23725 12.496V26H0.76525V3.536H7.22925L13.5333 19.088L19.7733 3.536H26.2053ZM38.2683 26.224C36.6256 26.224 35.1536 25.9573 33.8523 25.424C32.5509 24.8907 31.5056 24.1013 30.7163 23.056C29.9483 22.0107 29.5429 20.752 29.5003 19.28H35.3243C35.4096 20.112 35.6976 20.752 36.1883 21.2C36.6789 21.6267 37.3189 21.84 38.1083 21.84C38.9189 21.84 39.5589 21.6587 40.0283 21.296C40.4976 20.912 40.7323 20.3893 40.7323 19.728C40.7323 19.1733 40.5403 18.7147 40.1563 18.352C39.7936 17.9893 39.3349 17.6907 38.7803 17.456C38.2469 17.2213 37.4789 16.9547 36.4763 16.656C35.0256 16.208 33.8416 15.76 32.9243 15.312C32.0069 14.864 31.2176 14.2027 30.5563 13.328C29.8949 12.4533 29.5643 11.312 29.5643 9.904C29.5643 7.81333 30.3216 6.18133 31.8363 5.008C33.3509 3.81333 35.3243 3.216 37.7563 3.216C40.2309 3.216 42.2256 3.81333 43.7403 5.008C45.2549 6.18133 46.0656 7.824 46.1723 9.936H40.2523C40.2096 9.21067 39.9429 8.64533 39.4523 8.24C38.9616 7.81333 38.3323 7.6 37.5642 7.6C36.9029 7.6 36.3696 7.78133 35.9643 8.144C35.5589 8.48533 35.3563 8.98667 35.3563 9.648C35.3563 10.3733 35.6976 10.9387 36.3802 11.344C37.0629 11.7493 38.1296 12.1867 39.5803 12.656C41.0309 13.1467 42.2043 13.616 43.1003 14.064C44.0176 14.512 44.8069 15.1627 45.4683 16.016C46.1296 16.8693 46.4603 17.968 46.4603 19.312C46.4603 20.592 46.1296 21.7547 45.4683 22.8C44.8283 23.8453 43.8896 24.6773 42.6523 25.296C41.4149 25.9147 39.9536 26.224 38.2683 26.224ZM62.8518 26L55.2998 16.08V26H49.8278V3.536H55.2998V13.392L62.7878 3.536H69.2198L60.5158 14.544L69.5398 26H62.8518ZM92.2363 26H86.7643L77.6123 12.144V26H72.1403V3.536H77.6123L86.7643 17.456V3.536H92.2363V26Z" fill="black"/>
<path d="M104.331 26.224C102.688 26.224 101.216 25.9573 99.9148 25.424C98.6134 24.8907 97.5681 24.1013 96.7788 23.056C96.0108 22.0107 95.6054 20.752 95.5628 19.28H101.387C101.472 20.112 101.76 20.752 102.251 21.2C102.741 21.6267 103.381 21.84 104.171 21.84C104.981 21.84 105.621 21.6587 106.091 21.296C106.56 20.912 106.795 20.3893 106.795 19.728C106.795 19.1733 106.603 18.7147 106.219 18.352C105.856 17.9893 105.397 17.6907 104.843 17.456C104.309 17.2213 103.541 16.9547 102.539 16.656C101.088 16.208 99.9041 15.76 98.9868 15.312C98.0694 14.864 97.2801 14.2027 96.6188 13.328C95.9574 12.4533 95.6268 11.312 95.6268 9.904C95.6268 7.81333 96.3841 6.18133 97.8988 5.008C99.4134 3.81333 101.387 3.216 103.819 3.216C106.293 3.216 108.288 3.81333 109.803 5.008C111.317 6.18133 112.128 7.824 112.235 9.936H106.315C106.272 9.21067 106.005 8.64533 105.515 8.24C105.024 7.81333 104.395 7.6 103.627 7.6C102.965 7.6 102.432 7.78133 102.027 8.144C101.621 8.48533 101.419 8.98667 101.419 9.648C101.419 10.3733 101.76 10.9387 102.443 11.344C103.125 11.7493 104.192 12.1867 105.643 12.656C107.093 13.1467 108.267 13.616 109.163 14.064C110.08 14.512 110.869 15.1627 111.531 16.016C112.192 16.8693 112.523 17.968 112.523 19.312C112.523 20.592 112.192 21.7547 111.531 22.8C110.891 23.8453 109.952 24.6773 108.715 25.296C107.477 25.9147 106.016 26.224 104.331 26.224ZM125.842 21.36V26H123.058C121.074 26 119.528 25.52 118.418 24.56C117.309 23.5787 116.754 21.9893 116.754 19.792V12.688H114.578V8.144H116.754V3.792H122.226V8.144H125.81V12.688H122.226V19.856C122.226 20.3893 122.354 20.7733 122.61 21.008C122.866 21.2427 123.293 21.36 123.89 21.36H125.842ZM146.522 8.144V26H141.05V23.568C140.496 24.3573 139.738 24.9973 138.778 25.488C137.84 25.9573 136.794 26.192 135.642 26.192C134.277 26.192 133.072 25.8933 132.026 25.296C130.981 24.6773 130.17 23.792 129.594 22.64C129.018 21.488 128.73 20.1333 128.73 18.576V8.144H134.17V17.84C134.17 19.0347 134.48 19.9627 135.098 20.624C135.717 21.2853 136.549 21.616 137.594 21.616C138.661 21.616 139.504 21.2853 140.122 20.624C140.741 19.9627 141.05 19.0347 141.05 17.84V8.144H146.522ZM149.365 17.04C149.365 15.2053 149.706 13.5947 150.389 12.208C151.093 10.8213 152.042 9.75467 153.237 9.008C154.431 8.26133 155.765 7.888 157.237 7.888C158.41 7.888 159.477 8.13333 160.437 8.624C161.418 9.11467 162.186 9.776 162.741 10.608V2.32H168.213V26H162.741V23.44C162.229 24.2933 161.493 24.976 160.533 25.488C159.594 26 158.495 26.256 157.237 26.256C155.765 26.256 154.431 25.8827 153.237 25.136C152.042 24.368 151.093 23.2907 150.389 21.904C149.706 20.496 149.365 18.8747 149.365 17.04ZM162.741 17.072C162.741 15.7067 162.357 14.6293 161.589 13.84C160.842 13.0507 159.925 12.656 158.837 12.656C157.749 12.656 156.821 13.0507 156.053 13.84C155.306 14.608 154.933 15.6747 154.933 17.04C154.933 18.4053 155.306 19.4933 156.053 20.304C156.821 21.0933 157.749 21.488 158.837 21.488C159.925 21.488 160.842 21.0933 161.589 20.304C162.357 19.5147 162.741 18.4373 162.741 17.072ZM174.924 6.288C173.964 6.288 173.174 6.01067 172.556 5.456C171.958 4.88 171.66 4.176 171.66 3.344C171.66 2.49067 171.958 1.78667 172.556 1.232C173.174 0.655998 173.964 0.367998 174.924 0.367998C175.862 0.367998 176.63 0.655998 177.228 1.232C177.846 1.78667 178.156 2.49067 178.156 3.344C178.156 4.176 177.846 4.88 177.228 5.456C176.63 6.01067 175.862 6.288 174.924 6.288ZM177.644 8.144V26H172.172V8.144H177.644ZM189.737 26.256C187.988 26.256 186.409 25.8827 185.001 25.136C183.614 24.3893 182.516 23.3227 181.705 21.936C180.916 20.5493 180.521 18.928 180.521 17.072C180.521 15.2373 180.926 13.6267 181.737 12.24C182.548 10.832 183.657 9.75467 185.065 9.008C186.473 8.26133 188.052 7.888 189.801 7.888C191.55 7.888 193.129 8.26133 194.537 9.008C195.945 9.75467 197.054 10.832 197.865 12.24C198.676 13.6267 199.081 15.2373 199.081 17.072C199.081 18.9067 198.665 20.528 197.833 21.936C197.022 23.3227 195.902 24.3893 194.473 25.136C193.065 25.8827 191.486 26.256 189.737 26.256ZM189.737 21.52C190.782 21.52 191.668 21.136 192.393 20.368C193.14 19.6 193.513 18.5013 193.513 17.072C193.513 15.6427 193.15 14.544 192.425 13.776C191.721 13.008 190.846 12.624 189.801 12.624C188.734 12.624 187.849 13.008 187.145 13.776C186.441 14.5227 186.089 15.6213 186.089 17.072C186.089 18.5013 186.43 19.6 187.113 20.368C187.817 21.136 188.692 21.52 189.737 21.52Z" fill="#3C38FF"/>
</svg>
